<?xml version="1.0" standalone="yes"?><svg xmlns="http://www.w3.org/2000/svg" width="120" height="187" viewBox="0 0 120 187" fill="none" style="zoom: 1;"><g filter="url(#filter0_d_59_4972)"><path d="M109.592,0.797363 H10.3786 C4.7923,0.797363 0.263733,5.31117 0.263733,10.8792 V172.19 C0.263733,177.758 4.7923,182.271 10.3786,182.271 H109.592 C115.178,182.271 119.707,177.758 119.707,172.19 V10.8792 C119.707,5.31117 115.178,0.797363 109.592,0.797363 " fill="white"></path><path d="M103.904 148.548C103.904 148.256 104.022 147.817 104.022 147.525C104.022 147.233 104.022 146.912 103.992 146.619C103.875 145.597 103.494 144.603 102.732 143.902C103.435 143.872 105.194 143.872 105.898 143.902C105.106 144.603 104.754 145.567 104.637 146.619C104.608 146.941 104.608 147.233 104.608 147.525C104.608 147.817 104.725 148.256 104.725 148.548H103.904Z" fill="#0C0A35"></path><path d="M104.139 147.379C103.523 146.415 102.409 145.772 101.266 145.801C100.122 145.83 99.0081 146.678 98.8028 147.788C98.5976 148.782 99.096 149.776 99.7703 150.506C100.445 151.237 101.383 151.733 102.233 152.289C103.083 152.844 104.285 154.247 104.285 154.247C104.285 154.247 105.605 152.873 106.338 152.318C107.129 151.704 108.126 151.237 108.8 150.506C109.475 149.776 109.973 148.753 109.768 147.788C109.533 146.678 108.449 145.83 107.305 145.801C106.162 145.772 105.077 146.415 104.432 147.379H104.139V147.379Z" fill="#0C0A35"></path><path d="M97.6011 156.993H99.7707L101.471 161.903H107.716L109.211 156.993H110.97L105.488 173.796H103.113L97.6011 156.993ZM101.911 163.481L104.52 171.546L107.13 163.481H101.911Z" fill="#0C0A35"></path><path d="M15.6853 33.7017C15.6853 33.9939 15.568 34.4322 15.568 34.7245C15.568 35.0459 15.568 35.3382 15.5973 35.6304C15.7146 36.6824 16.0958 37.6467 16.858 38.3481C16.1544 38.3773 14.3953 38.3773 13.6917 38.3481C14.4832 37.6467 14.8351 36.6824 14.9523 35.6304C14.9817 35.3382 14.9817 35.0167 14.9817 34.7245C14.9817 34.4322 14.8644 33.9939 14.8644 33.7017H15.6853Z" fill="#0C0A35"></path><path d="M15.4507 34.8708C16.0664 35.8352 17.1805 36.478 18.3239 36.4488C19.4673 36.4196 20.5814 35.5722 20.7866 34.4617C20.9918 33.4681 20.4934 32.4745 19.8191 31.7439C19.1448 31.0134 18.2066 30.5166 17.3564 29.9613C16.5061 29.4061 15.3041 28.0034 15.3041 28.0034C15.3041 28.0034 13.9848 29.3769 13.2518 29.9321C12.4602 30.5458 11.4634 31.0134 10.7891 31.7439C10.1147 32.4745 9.61632 33.4973 9.82155 34.4617C10.0561 35.5722 11.1409 36.4196 12.2843 36.4488C13.4277 36.478 14.5418 35.8352 15.1575 34.8708H15.4507V34.8708Z" fill="#0C0A35"></path><path d="M61.0115 92.8191C61.0115 93.5789 60.7183 94.6309 60.7183 95.3907C60.7183 96.1505 60.7183 96.9103 60.8062 97.6701C61.0994 100.242 62.0376 102.726 63.9726 104.45C62.2135 104.567 57.7864 104.567 56.0273 104.45C57.9623 102.726 58.9005 100.242 59.1937 97.6701C59.2817 96.9103 59.2817 96.1505 59.2817 95.3907C59.2817 94.6309 58.9885 93.5789 58.9885 92.8191H61.0408H61.0115Z" fill="#0C0A35"></path><path d="M60.3666 95.6833C61.9205 98.0796 64.6764 99.7453 67.5496 99.6576C70.4228 99.57 73.1787 97.4951 73.7358 94.6897C74.2342 92.235 73.0321 89.6926 71.3024 87.8516C69.6019 86.0105 67.2271 84.8124 65.1455 83.4097C63.0053 82.007 59.9855 78.5002 59.9855 78.5002C59.9855 78.5002 56.7018 81.9193 54.8548 83.322C52.8611 84.8416 50.3691 86.0105 48.6686 87.8223C46.9681 89.6634 45.7661 92.1765 46.2352 94.6605C46.7922 97.4659 49.5775 99.5407 52.4213 99.6284C55.2945 99.716 58.0505 98.0503 59.6043 95.6541H60.3373L60.3666 95.6833Z" fill="#0C0A35"></path><path d="M21.9888,26.0751 H19.8192 L18.1187,21.1657 H11.8739 L10.3787,26.0751 H8.6196 L14.1021,9.27197 H16.4769 L21.9888,26.0751 V26.0751 M17.679,19.5876 L15.0696,11.5221 L12.4603,19.5876 H17.679 V19.5876 " fill="#0C0A35"></path></g><defs><filter id="filter0_d_59_4972" x="0.263733" y="0.797363" width="119.443" height="185.474" filterUnits="userSpaceOnUse" color-interpolation-filters="sRGB"><feFlood flood-opacity="0" result="BackgroundImageFix"></feFlood><feColorMatrix in="SourceAlpha" type="matrix" values="0 0 0 0 0 0 0 0 0 0 0 0 0 0 0 0 0 0 127 0" result="hardAlpha"></feColorMatrix><feOffset dy="4"></feOffset><feComposite in2="hardAlpha" operator="out"></feComposite><feColorMatrix type="matrix" values="0 0 0 0 0 0 0 0 0 0 0 0 0 0 0 0 0 0 0.25 0"></feColorMatrix><feBlend mode="normal" in2="BackgroundImageFix" result="effect1_dropShadow_59_4972"></feBlend><feBlend mode="normal" in="SourceGraphic" in2="effect1_dropShadow_59_4972" result="shape"></feBlend></filter></defs><rect stroke="#ffffff" x="8px" height="15px" y="28px" id="rect1" stroke-width="3px" width="15px" fill="#ffffff" transform=""></rect><rect stroke="#ffffff" x="28px" height="41px" y="73px" id="rect2" stroke-width="3px" width="54px" fill="#ffffff" transform=""></rect><rect stroke="#ffffff" x="93px" height="17px" y="140px" id="rect3" stroke-width="3px" width="24px" fill="#ffffff" transform=""></rect><path d="M16.5288,37.4778 C16.5288,37.4778 16.7927,37.4487 16.9099,37.361 C17.7895,36.7767 20.047,34.4099 20.7213,33.7379 C20.8386,33.621 20.9852,33.4457 20.9559,33.2704 C20.9559,33.1243 20.8386,33.0075 20.7213,32.9198 C19.7245,31.9556 18.6984,31.0207 17.7602,29.9688 C17.3497,29.5306 16.8806,29.0046 16.5874,28.9753 H16.4408 C16.1476,28.9753 15.6786,29.5013 15.2681,29.9688 C14.3299,30.9915 13.3038,31.9264 12.307,32.9198 C12.219,33.0367 12.1017,33.1243 12.0724,33.2704 C12.0724,33.4457 12.1897,33.621 12.307,33.7379 C12.952,34.4099 15.2388,36.7767 16.1183,37.361 C16.2356,37.4487 16.3822,37.4778 16.4995,37.4778 H16.5288 " id="path3" fill="#D6002B"></path><path d="M60.4768,105.294 C60.9459,105.294 61.3857,105.177 61.7668,104.914 C64.6693,102.985 72.1162,95.1548 74.2858,92.9635 C74.6962,92.5544 75.1067,92.0284 75.048,91.4441 C74.9894,90.9766 74.6376,90.5968 74.3151,90.2754 C71.0607,87.0321 67.6305,83.9935 64.5814,80.6042 C63.2621,79.1432 61.7082,77.4486 60.7114,77.3901 H60.213 C59.2454,77.4486 57.6623,79.1432 56.3723,80.6042 C53.3231,83.9935 49.8929,87.0614 46.6386,90.2754 C46.3161,90.5968 45.9642,90.9766 45.9056,91.4441 C45.847,92.0284 46.2574,92.5544 46.6679,92.9635 C48.8375,95.1548 56.2843,103.015 59.1868,104.914 C59.568,105.177 60.0077,105.294 60.4768,105.294 V105.294 " id="path1" fill="#D6002B"></path><path d="M105.568,153.007 C105.568,153.007 105.832,152.977 105.95,152.89 C106.829,152.305 109.087,149.91 109.761,149.267 C109.878,149.15 110.025,148.975 109.996,148.799 C109.996,148.653 109.878,148.536 109.761,148.449 C108.764,147.455 107.738,146.549 106.8,145.498 C106.389,145.059 105.92,144.533 105.627,144.504 H105.48 C105.187,144.504 104.718,145.03 104.308,145.498 C103.37,146.52 102.343,147.455 101.347,148.449 C101.259,148.565 101.141,148.653 101.112,148.799 C101.112,148.975 101.229,149.121 101.347,149.267 C101.992,149.939 104.278,152.305 105.158,152.89 C105.275,152.977 105.422,153.007 105.539,153.007 H105.568 " id="path2" fill="#D6002B"></path></svg>