<?xml version="1.0" standalone="yes"?><svg xmlns="http://www.w3.org/2000/svg" width="121" height="186" viewBox="0 0 121 186" fill="none" style="zoom: 1;"><g filter="url(#filter0_d_59_6267)"><path d="M10.7826,0.33374 H110.025 C115.596,0.33374 120.14,4.86332 120.14,10.4157 V171.726 C120.14,177.278 115.596,181.808 110.025,181.808 H10.7826 C5.2121,181.808 0.667725,177.278 0.667725,171.726 V10.4157 C0.667725,4.86332 5.2121,0.33374 10.7826,0.33374 " fill="white"></path><path d="M12.3364 24.034V25.5829H6.00367V24.034H8.31985V11.0591C6.82461 12.6079 5.27069 13.8061 3.6875 14.6827V12.5787C5.88638 11.4098 7.61619 10.0363 8.84756 8.45825H10.3721V24.034H12.3658H12.3364Z" fill="#D6002B"></path><path d="M19.6369 25.9626C17.7018 25.9626 16.148 25.1151 14.9753 23.4494C13.8025 21.7837 13.2455 19.6796 13.2455 17.1957C13.2455 14.7118 13.8025 12.6954 14.8873 11.0005C15.9721 9.30555 17.5553 8.4873 19.5783 8.4873C21.6012 8.4873 23.2723 9.36397 24.3864 11.1173C25.4712 12.8707 26.0282 14.9455 26.0282 17.3126C26.0282 19.6796 25.4713 21.6376 24.3572 23.3909C23.2431 25.1151 21.6892 25.9918 19.6662 25.9918L19.6369 25.9626ZM19.6369 24.2969C21.0735 24.2969 22.129 23.654 22.8033 22.3682C23.4776 21.0824 23.8294 19.4751 23.8294 17.5172C23.8294 15.3839 23.4776 13.6305 22.7739 12.1986C22.0703 10.7959 20.9855 10.0946 19.5489 10.0946C18.1123 10.0946 17.0861 10.7374 16.4118 12.0232C15.7375 13.3091 15.3858 15.004 15.3858 17.108C15.3858 19.2121 15.7376 21.0239 16.4705 22.3389C17.2035 23.6247 18.2589 24.2969 19.6662 24.2969H19.6369Z" fill="#D6002B"></path><path d="M108.442 158.078V156.5H114.775V158.078H112.458V171.053C113.954 169.504 115.508 168.277 117.091 167.429V169.533C114.863 170.673 113.162 172.076 111.931 173.654H110.406V158.078H108.412H108.442Z" fill="#D6002B"></path><path d="M101.141 156.179C103.076 156.179 104.63 157.026 105.803 158.692C106.976 160.357 107.533 162.462 107.533 164.945C107.533 167.429 106.976 169.446 105.891 171.141C104.806 172.836 103.223 173.654 101.2 173.654C99.177 173.654 97.5058 172.777 96.3917 171.024C95.3069 169.27 94.7499 167.196 94.7499 164.829C94.7499 162.462 95.3069 160.504 96.421 158.75C97.5351 157.026 99.1183 156.149 101.112 156.149L101.141 156.179ZM101.141 157.844C99.7047 157.844 98.6786 158.487 97.9749 159.773C97.3006 161.059 96.9488 162.666 96.9488 164.624C96.9488 166.757 97.3006 168.511 98.0043 169.913C98.7079 171.316 99.7927 172.017 101.229 172.017C102.666 172.017 103.692 171.375 104.366 170.089C105.041 168.803 105.392 167.108 105.392 165.004C105.392 162.9 105.041 161.088 104.308 159.773C103.575 158.458 102.519 157.815 101.112 157.815L101.141 157.844Z" fill="#D6002B"></path><rect stroke="#ffffff" x="67px" height="1px" y="56px" id="rect1" stroke-width="3px" width="1px" fill="#ffffff" transform=""></rect></g><defs><filter id="filter0_d_59_6267" x="0.667725" y="0.33374" width="119.472" height="185.474" filterUnits="userSpaceOnUse" color-interpolation-filters="sRGB"><feFlood flood-opacity="0" result="BackgroundImageFix"></feFlood><feColorMatrix in="SourceAlpha" type="matrix" values="0 0 0 0 0 0 0 0 0 0 0 0 0 0 0 0 0 0 127 0" result="hardAlpha"></feColorMatrix><feOffset dy="4"></feOffset><feComposite in2="hardAlpha" operator="out"></feComposite><feColorMatrix type="matrix" values="0 0 0 0 0 0 0 0 0 0 0 0 0 0 0 0 0 0 0.25 0"></feColorMatrix><feBlend mode="normal" in2="BackgroundImageFix" result="effect1_dropShadow_59_6267"></feBlend><feBlend mode="normal" in="SourceGraphic" in2="effect1_dropShadow_59_6267" result="shape"></feBlend></filter></defs><path d="M16.5288,37.4778 C16.5288,37.4778 16.7927,37.4487 16.9099,37.361 C17.7895,36.7767 20.047,34.4099 20.7213,33.7379 C20.8386,33.621 20.9852,33.4457 20.9559,33.2704 C20.9559,33.1243 20.8386,33.0075 20.7213,32.9198 C19.7245,31.9556 18.6984,31.0207 17.7602,29.9688 C17.3497,29.5306 16.8806,29.0046 16.5874,28.9753 H16.4408 C16.1476,28.9753 15.6786,29.5013 15.2681,29.9688 C14.3299,30.9915 13.3038,31.9264 12.307,32.9198 C12.219,33.0367 12.1017,33.1243 12.0724,33.2704 C12.0724,33.4457 12.1897,33.621 12.307,33.7379 C12.952,34.4099 15.2388,36.7767 16.1183,37.361 C16.2356,37.4487 16.3822,37.4778 16.4995,37.4778 H16.5288 " id="path1" fill="#D6002B"></path><path d="M105.568,153.007 C105.568,153.007 105.832,152.977 105.95,152.89 C106.829,152.305 109.087,149.91 109.761,149.267 C109.878,149.15 110.025,148.975 109.996,148.799 C109.996,148.653 109.878,148.536 109.761,148.449 C108.764,147.455 107.738,146.549 106.8,145.498 C106.389,145.059 105.92,144.533 105.627,144.504 H105.48 C105.187,144.504 104.718,145.03 104.308,145.498 C103.37,146.52 102.343,147.455 101.347,148.449 C101.259,148.565 101.141,148.653 101.112,148.799 C101.112,148.975 101.229,149.121 101.347,149.267 C101.992,149.939 104.278,152.305 105.158,152.89 C105.275,152.977 105.422,153.007 105.539,153.007 H105.568 " id="path2" fill="#D6002B"></path><path d="M60.4768,105.294 C60.9459,105.294 61.3857,105.177 61.7668,104.914 C64.6693,102.985 72.1162,95.1548 74.2858,92.9635 C74.6962,92.5544 75.1067,92.0284 75.048,91.4441 C74.9894,90.9766 74.6376,90.5968 74.3151,90.2754 C71.0607,87.0321 67.6305,83.9935 64.5814,80.6042 C63.2621,79.1432 61.7082,77.4486 60.7114,77.3901 H60.213 C59.2454,77.4486 57.6623,79.1432 56.3723,80.6042 C53.3231,83.9935 49.8929,87.0614 46.6386,90.2754 C46.3161,90.5968 45.9642,90.9766 45.9056,91.4441 C45.847,92.0284 46.2574,92.5544 46.6679,92.9635 C48.8375,95.1548 56.2843,103.015 59.1868,104.914 C59.568,105.177 60.0077,105.294 60.4768,105.294 V105.294 " id="path3" fill="#D6002B"></path></svg>