<?xml version="1.0" standalone="yes"?><svg xmlns="http://www.w3.org/2000/svg" width="121" height="186" viewBox="0 0 121 186" fill="none" style="zoom: 1;"><g filter="url(#filter0_d_59_6267)"><path d="M10.7826,0.33374 H110.025 C115.596,0.33374 120.14,4.86332 120.14,10.4157 V171.726 C120.14,177.278 115.596,181.808 110.025,181.808 H10.7826 C5.2121,181.808 0.667725,177.278 0.667725,171.726 V10.4157 C0.667725,4.86332 5.2121,0.33374 10.7826,0.33374 " fill="white"></path><path d="M12.3364 24.034V25.5829H6.00367V24.034H8.31985V11.0591C6.82461 12.6079 5.27069 13.8061 3.6875 14.6827V12.5787C5.88638 11.4098 7.61619 10.0363 8.84756 8.45825H10.3721V24.034H12.3658H12.3364Z" fill="#D6002B"></path><path d="M19.6369 25.9626C17.7018 25.9626 16.148 25.1151 14.9753 23.4494C13.8025 21.7837 13.2455 19.6796 13.2455 17.1957C13.2455 14.7118 13.8025 12.6954 14.8873 11.0005C15.9721 9.30555 17.5553 8.4873 19.5783 8.4873C21.6012 8.4873 23.2723 9.36397 24.3864 11.1173C25.4712 12.8707 26.0282 14.9455 26.0282 17.3126C26.0282 19.6796 25.4713 21.6376 24.3572 23.3909C23.2431 25.1151 21.6892 25.9918 19.6662 25.9918L19.6369 25.9626ZM19.6369 24.2969C21.0735 24.2969 22.129 23.654 22.8033 22.3682C23.4776 21.0824 23.8294 19.4751 23.8294 17.5172C23.8294 15.3839 23.4776 13.6305 22.7739 12.1986C22.0703 10.7959 20.9855 10.0946 19.5489 10.0946C18.1123 10.0946 17.0861 10.7374 16.4118 12.0232C15.7375 13.3091 15.3858 15.004 15.3858 17.108C15.3858 19.2121 15.7376 21.0239 16.4705 22.3389C17.2035 23.6247 18.2589 24.2969 19.6662 24.2969H19.6369Z" fill="#D6002B"></path><path d="M108.442 158.078V156.5H114.775V158.078H112.458V171.053C113.954 169.504 115.508 168.277 117.091 167.429V169.533C114.863 170.673 113.162 172.076 111.931 173.654H110.406V158.078H108.412H108.442Z" fill="#D6002B"></path><path d="M101.141 156.179C103.076 156.179 104.63 157.026 105.803 158.692C106.976 160.357 107.533 162.462 107.533 164.945C107.533 167.429 106.976 169.446 105.891 171.141C104.806 172.836 103.223 173.654 101.2 173.654C99.177 173.654 97.5058 172.777 96.3917 171.024C95.3069 169.27 94.7499 167.196 94.7499 164.829C94.7499 162.462 95.3069 160.504 96.421 158.75C97.5351 157.026 99.1183 156.149 101.112 156.149L101.141 156.179ZM101.141 157.844C99.7047 157.844 98.6786 158.487 97.9749 159.773C97.3006 161.059 96.9488 162.666 96.9488 164.624C96.9488 166.757 97.3006 168.511 98.0043 169.913C98.7079 171.316 99.7927 172.017 101.229 172.017C102.666 172.017 103.692 171.375 104.366 170.089C105.041 168.803 105.392 167.108 105.392 165.004C105.392 162.9 105.041 161.088 104.308 159.773C103.575 158.458 102.519 157.815 101.112 157.815L101.141 157.844Z" fill="#D6002B"></path><rect stroke="#ffffff" x="67px" height="1px" y="56px" id="rect1" stroke-width="3px" width="1px" fill="#ffffff" transform=""></rect></g><defs><filter id="filter0_d_59_6267" x="0.667725" y="0.33374" width="119.472" height="185.474" filterUnits="userSpaceOnUse" color-interpolation-filters="sRGB"><feFlood flood-opacity="0" result="BackgroundImageFix"></feFlood><feColorMatrix in="SourceAlpha" type="matrix" values="0 0 0 0 0 0 0 0 0 0 0 0 0 0 0 0 0 0 127 0" result="hardAlpha"></feColorMatrix><feOffset dy="4"></feOffset><feComposite in2="hardAlpha" operator="out"></feComposite><feColorMatrix type="matrix" values="0 0 0 0 0 0 0 0 0 0 0 0 0 0 0 0 0 0 0.25 0"></feColorMatrix><feBlend mode="normal" in2="BackgroundImageFix" result="effect1_dropShadow_59_6267"></feBlend><feBlend mode="normal" in="SourceGraphic" in2="effect1_dropShadow_59_6267" result="shape"></feBlend></filter></defs><path d="M16.0633,35.4911 C16.3565,35.5496 16.5324,35.8126 17.0601,36.3678 C17.5292,36.8938 17.9983,37.4198 19.0831,37.566 C19.6401,37.6244 20.3731,37.3322 20.6956,36.8938 C20.9888,36.5139 21.1354,36.0756 21.2527,35.608 C21.4872,34.7606 21.3993,33.9131 20.9888,33.1533 C20.5783,32.3935 19.4349,32.0428 18.7606,32.452 C18.3795,32.6857 18.2622,32.9488 17.9397,33.0072 C17.8224,33.0072 17.7345,32.9195 17.7638,32.8318 C17.9104,32.3058 18.2622,32.2474 18.4381,31.6337 C18.6433,30.9032 18.7606,30.3479 17.7051,29.4128 C16.9135,28.7114 14.9492,28.7699 14.1283,29.4128 C13.2781,30.0557 13.1901,30.6401 13.3953,31.3707 C13.5419,31.9552 13.8937,32.2182 14.0403,32.6857 C14.099,32.8611 13.9231,33.0072 13.7765,32.9487 C13.5419,32.8611 13.3953,32.6273 13.0728,32.4227 C12.3692,32.0136 11.2551,32.3351 10.8446,33.1241 C10.4342,33.8839 10.3462,34.7313 10.5808,35.5788 C10.698,36.0171 10.8446,36.4847 11.1378,36.8646 C11.4603,37.303 12.1933,37.5952 12.7503,37.5367 C13.8351,37.4198 14.3042,36.8646 14.7733,36.3386 C15.301,35.7834 15.4769,35.4911 15.7701,35.4619 H16.1513 L16.0633,35.4911 " id="path1" fill="#0C0A35"></path><path d="M104.634,147.239 C104.341,147.181 104.194,146.918 103.666,146.334 C103.197,145.807 102.728,145.281 101.644,145.135 C101.086,145.077 100.354,145.369 100.031,145.807 C99.7378,146.187 99.5912,146.626 99.474,147.093 C99.2394,147.941 99.3274,148.788 99.7671,149.548 C100.178,150.308 101.292,150.658 101.995,150.249 C102.376,150.016 102.494,149.753 102.816,149.694 C102.934,149.694 103.021,149.782 102.992,149.869 C102.846,150.395 102.494,150.454 102.318,151.068 C102.113,151.798 101.995,152.353 103.051,153.289 C103.842,153.99 105.807,153.931 106.628,153.289 C107.478,152.646 107.566,152.061 107.361,151.331 C107.214,150.746 106.862,150.483 106.716,150.016 C106.657,149.84 106.833,149.694 106.979,149.753 C107.214,149.84 107.361,150.074 107.683,150.279 C108.387,150.688 109.501,150.366 109.911,149.577 C110.322,148.817 110.41,147.97 110.175,147.123 C110.058,146.684 109.911,146.217 109.618,145.837 C109.296,145.398 108.563,145.106 108.006,145.165 C106.921,145.311 106.452,145.837 105.983,146.363 C105.455,146.947 105.279,147.21 104.986,147.269 H104.605 L104.634,147.239 " id="path2" fill="#0C0A35"></path><path d="M59.8647,97.039001 C59.131802,97.155899 58.692001,97.857201 57.3433,99.318398 C56.112,100.6334 54.909901,102.036102 52.153999,102.386795 C50.7467,102.562103 48.8997,101.802299 48.0494,100.691902 C47.345798,99.727501 46.935299,98.587799 46.6422,97.4189 C46.085098,95.256401 46.290298,93.093903 47.345798,91.136002 C48.401199,89.178101 51.274399,88.301399 53.062901,89.382599 C54.000999,89.937897 54.323601,90.639198 55.203098,90.785301 C55.466999,90.843796 55.7015,90.580795 55.613602,90.317802 C55.2617,89.002701 54.323601,88.8274 53.883801,87.249298 C53.356098,85.379105 53.062901,83.947205 55.760201,81.580101 C57.812401,79.797501 62.7672,79.943604 64.936798,81.580101 C67.135696,83.245804 67.340897,84.765396 66.813202,86.6064 C66.402702,88.067596 65.552498,88.7397 65.171303,89.9963 C65.0541,90.405396 65.435204,90.814499 65.845703,90.668396 C66.4907,90.405396 66.813202,89.820999 67.634102,89.353401 C69.393204,88.301399 72.266403,89.148804 73.351196,91.106796 C74.435898,93.064697 74.641197,95.227203 74.054802,97.389702 C73.761597,98.558601 73.351097,99.698303 72.647499,100.662598 C71.797302,101.802299 69.920898,102.532898 68.542999,102.357605 C65.787003,102.006897 64.584999,100.6334 63.3536,99.2892 C62.005001,97.828003 61.594501,97.126701 60.832199,97.009796 H59.8647 V97.039001 " id="path3" fill="#0C0A35"></path></svg>