<?xml version="1.0" standalone="yes"?><svg xmlns="http://www.w3.org/2000/svg" width="121" height="186" viewBox="0 0 121 186" fill="none" style="zoom: 1;"><g filter="url(#filter0_d_59_6267)"><path d="M10.7826,0.33374 H110.025002 C115.596001,0.33374 120.139999,4.86332 120.139999,10.4157 V171.725998 C120.139999,177.278 115.596001,181.807999 110.025002,181.807999 H10.7826 C5.2121,181.807999 0.667725,177.278 0.667725,171.725998 V10.4157 C0.667725,4.86332 5.2121,0.33374 10.7826,0.33374 " fill="white"></path><path d="M104.748 145.162C104.249 145.6 103.722 145.951 103.194 146.331C102.608 146.769 101.992 147.149 101.523 147.675C101.142 148.113 100.966 148.581 100.761 149.136C100.585 149.691 100.555 150.919 100.878 151.415C101.787 152.877 104.308 154.133 105.979 150.948C105.979 150.889 106.038 150.86 106.097 150.86C106.097 150.86 106.184 150.86 106.214 150.948C107.885 154.133 110.406 152.877 111.315 151.415C111.638 150.919 111.608 149.72 111.403 149.136C111.227 148.581 111.051 148.142 110.641 147.675C110.172 147.12 109.556 146.74 108.97 146.331C108.442 145.951 107.885 145.6 107.416 145.162C107.181 144.928 106.067 143.759 106.067 143.759C106.067 143.759 104.982 144.928 104.719 145.162H104.748Z" fill="#D6002B"></path><path d="M12.3364 24.034V25.5829H6.00367V24.034H8.31985V11.0591C6.82461 12.6079 5.27069 13.8061 3.6875 14.6827V12.5787C5.88638 11.4098 7.61619 10.0363 8.84756 8.45825H10.3721V24.034H12.3658H12.3364Z" fill="#D6002B"></path><path d="M19.6369 25.9626C17.7018 25.9626 16.148 25.1151 14.9753 23.4494C13.8025 21.7837 13.2455 19.6796 13.2455 17.1957C13.2455 14.7118 13.8025 12.6954 14.8873 11.0005C15.9721 9.30555 17.5553 8.4873 19.5783 8.4873C21.6012 8.4873 23.2723 9.36397 24.3864 11.1173C25.4712 12.8707 26.0282 14.9455 26.0282 17.3126C26.0282 19.6796 25.4713 21.6376 24.3572 23.3909C23.2431 25.1151 21.6892 25.9918 19.6662 25.9918L19.6369 25.9626ZM19.6369 24.2969C21.0735 24.2969 22.129 23.654 22.8033 22.3682C23.4776 21.0824 23.8294 19.4751 23.8294 17.5172C23.8294 15.3839 23.4776 13.6305 22.7739 12.1986C22.0703 10.7959 20.9855 10.0946 19.5489 10.0946C18.1123 10.0946 17.0861 10.7374 16.4118 12.0232C15.7375 13.3091 15.3858 15.004 15.3858 17.108C15.3858 19.2121 15.7376 21.0239 16.4705 22.3389C17.2035 23.6247 18.2589 24.2969 19.6662 24.2969H19.6369Z" fill="#D6002B"></path><path d="M108.442 158.078V156.5H114.775V158.078H112.458V171.053C113.954 169.504 115.508 168.277 117.091 167.429V169.533C114.863 170.673 113.162 172.076 111.931 173.654H110.406V158.078H108.412H108.442Z" fill="#D6002B"></path><path d="M101.141 156.179C103.076 156.179 104.63 157.026 105.803 158.692C106.976 160.357 107.533 162.462 107.533 164.945C107.533 167.429 106.976 169.446 105.891 171.141C104.806 172.836 103.223 173.654 101.2 173.654C99.177 173.654 97.5058 172.777 96.3917 171.024C95.3069 169.27 94.7499 167.196 94.7499 164.829C94.7499 162.462 95.3069 160.504 96.421 158.75C97.5351 157.026 99.1183 156.149 101.112 156.149L101.141 156.179ZM101.141 157.844C99.7047 157.844 98.6786 158.487 97.9749 159.773C97.3006 161.059 96.9488 162.666 96.9488 164.624C96.9488 166.757 97.3006 168.511 98.0043 169.913C98.7079 171.316 99.7927 172.017 101.229 172.017C102.666 172.017 103.692 171.375 104.366 170.089C105.041 168.803 105.392 167.108 105.392 165.004C105.392 162.9 105.041 161.088 104.308 159.773C103.575 158.458 102.519 157.815 101.112 157.815L101.141 157.844Z" fill="#D6002B"></path><rect stroke="#ffffff" x="67px" height="1px" y="56px" id="rect1" stroke-width="3px" width="1px" fill="#ffffff" transform=""></rect><path d="M10.7826,0.33374 H110.025002 C115.596001,0.33374 120.139999,4.86332 120.139999,10.4157 V171.725998 C120.139999,177.278 115.596001,181.807999 110.025002,181.807999 H10.7826 C5.2121,181.807999 0.667725,177.278 0.667725,171.725998 V10.4157 C0.667725,4.86332 5.2121,0.33374 10.7826,0.33374 " id="path1" fill="white"></path><text stroke="none" style="outline-style:none;" id="text1" stroke-width="1px" x="60px" text-rendering="geometricPrecision" font-family="Georgia" fill="#000000" font-size="24px" y="52px" transform="" text-anchor="middle">Computer</text><text stroke="none" style="outline-style:none;" id="text2" stroke-width="1px" x="60px" text-rendering="geometricPrecision" font-family="Georgia" y="107px" fill="#000000" font-size="32px" transform="" text-anchor="middle">Card</text></g><defs><filter id="filter0_d_59_6267" x="0.667725" y="0.33374" width="119.472" height="185.474" filterUnits="userSpaceOnUse" color-interpolation-filters="sRGB"><feFlood flood-opacity="0" result="BackgroundImageFix"></feFlood><feColorMatrix in="SourceAlpha" type="matrix" values="0 0 0 0 0 0 0 0 0 0 0 0 0 0 0 0 0 0 127 0" result="hardAlpha"></feColorMatrix><feOffset dy="4"></feOffset><feComposite in2="hardAlpha" operator="out"></feComposite><feColorMatrix type="matrix" values="0 0 0 0 0 0 0 0 0 0 0 0 0 0 0 0 0 0 0.25 0"></feColorMatrix><feBlend mode="normal" in2="BackgroundImageFix" result="effect1_dropShadow_59_6267"></feBlend><feBlend mode="normal" in="SourceGraphic" in2="effect1_dropShadow_59_6267" result="shape"></feBlend></filter></defs></svg>