<?xml version="1.0" standalone="yes"?><svg xmlns="http://www.w3.org/2000/svg" width="120" height="187" viewBox="0 0 120 187" fill="none" style="zoom: 1;"><g filter="url(#filter0_d_59_4972)"><path d="M109.592,0.797363 H10.3786 C4.7923,0.797363 0.263733,5.31117 0.263733,10.8792 V172.19 C0.263733,177.758 4.7923,182.271 10.3786,182.271 H109.592 C115.178,182.271 119.707,177.758 119.707,172.19 V10.8792 C119.707,5.31117 115.178,0.797363 109.592,0.797363 " fill="white"></path><path d="M103.904 148.548C103.904 148.256 104.022 147.817 104.022 147.525C104.022 147.233 104.022 146.912 103.992 146.619C103.875 145.597 103.494 144.603 102.732 143.902C103.435 143.872 105.194 143.872 105.898 143.902C105.106 144.603 104.754 145.567 104.637 146.619C104.608 146.941 104.608 147.233 104.608 147.525C104.608 147.817 104.725 148.256 104.725 148.548H103.904Z" fill="#0C0A35"></path><path d="M104.139 147.379C103.523 146.415 102.409 145.772 101.266 145.801C100.122 145.83 99.0081 146.678 98.8028 147.788C98.5976 148.782 99.096 149.776 99.7703 150.506C100.445 151.237 101.383 151.733 102.233 152.289C103.083 152.844 104.285 154.247 104.285 154.247C104.285 154.247 105.605 152.873 106.338 152.318C107.129 151.704 108.126 151.237 108.8 150.506C109.475 149.776 109.973 148.753 109.768 147.788C109.533 146.678 108.449 145.83 107.305 145.801C106.162 145.772 105.077 146.415 104.432 147.379H104.139V147.379Z" fill="#0C0A35"></path><path d="M97.6011 156.993H99.7707L101.471 161.903H107.716L109.211 156.993H110.97L105.488 173.796H103.113L97.6011 156.993ZM101.911 163.481L104.52 171.546L107.13 163.481H101.911Z" fill="#0C0A35"></path><path d="M15.6853 33.7017C15.6853 33.9939 15.568 34.4322 15.568 34.7245C15.568 35.0459 15.568 35.3382 15.5973 35.6304C15.7146 36.6824 16.0958 37.6467 16.858 38.3481C16.1544 38.3773 14.3953 38.3773 13.6917 38.3481C14.4832 37.6467 14.8351 36.6824 14.9523 35.6304C14.9817 35.3382 14.9817 35.0167 14.9817 34.7245C14.9817 34.4322 14.8644 33.9939 14.8644 33.7017H15.6853Z" fill="#0C0A35"></path><path d="M15.4507 34.8708C16.0664 35.8352 17.1805 36.478 18.3239 36.4488C19.4673 36.4196 20.5814 35.5722 20.7866 34.4617C20.9918 33.4681 20.4934 32.4745 19.8191 31.7439C19.1448 31.0134 18.2066 30.5166 17.3564 29.9613C16.5061 29.4061 15.3041 28.0034 15.3041 28.0034C15.3041 28.0034 13.9848 29.3769 13.2518 29.9321C12.4602 30.5458 11.4634 31.0134 10.7891 31.7439C10.1147 32.4745 9.61632 33.4973 9.82155 34.4617C10.0561 35.5722 11.1409 36.4196 12.2843 36.4488C13.4277 36.478 14.5418 35.8352 15.1575 34.8708H15.4507V34.8708Z" fill="#0C0A35"></path><path d="M61.0115 92.8191C61.0115 93.5789 60.7183 94.6309 60.7183 95.3907C60.7183 96.1505 60.7183 96.9103 60.8062 97.6701C61.0994 100.242 62.0376 102.726 63.9726 104.45C62.2135 104.567 57.7864 104.567 56.0273 104.45C57.9623 102.726 58.9005 100.242 59.1937 97.6701C59.2817 96.9103 59.2817 96.1505 59.2817 95.3907C59.2817 94.6309 58.9885 93.5789 58.9885 92.8191H61.0408H61.0115Z" fill="#0C0A35"></path><path d="M21.9888,26.0751 H19.8192 L18.1187,21.1657 H11.8739 L10.3787,26.0751 H8.6196 L14.1021,9.27197 H16.4769 L21.9888,26.0751 V26.0751 M17.679,19.5876 L15.0696,11.5221 L12.4603,19.5876 H17.679 V19.5876 " fill="#0C0A35"></path></g><defs><filter id="filter0_d_59_4972" x="0.263733" y="0.797363" width="119.443" height="185.474" filterUnits="userSpaceOnUse" color-interpolation-filters="sRGB"><feFlood flood-opacity="0" result="BackgroundImageFix"></feFlood><feColorMatrix in="SourceAlpha" type="matrix" values="0 0 0 0 0 0 0 0 0 0 0 0 0 0 0 0 0 0 127 0" result="hardAlpha"></feColorMatrix><feOffset dy="4"></feOffset><feComposite in2="hardAlpha" operator="out"></feComposite><feColorMatrix type="matrix" values="0 0 0 0 0 0 0 0 0 0 0 0 0 0 0 0 0 0 0.25 0"></feColorMatrix><feBlend mode="normal" in2="BackgroundImageFix" result="effect1_dropShadow_59_4972"></feBlend><feBlend mode="normal" in="SourceGraphic" in2="effect1_dropShadow_59_4972" result="shape"></feBlend></filter></defs><rect stroke="#ffffff" x="8px" height="15px" y="28px" id="rect1" stroke-width="3px" width="15px" fill="#ffffff" transform=""></rect><rect stroke="#ffffff" x="93px" height="17px" y="140px" id="rect3" stroke-width="3px" width="24px" fill="#ffffff" transform=""></rect><path d="M59.8647,100.039001 C59.131802,100.155899 58.692001,100.857201 57.3433,102.318398 C56.112,103.6334 54.909901,105.036102 52.153999,105.386795 C50.7467,105.562103 48.8997,104.802299 48.0494,103.691902 C47.345798,102.727501 46.935299,101.587799 46.6422,100.4189 C46.085098,98.256401 46.290298,96.093903 47.345798,94.136002 C48.401199,92.178101 51.274399,91.301399 53.062901,92.382599 C54.000999,92.937897 54.323601,93.639198 55.203098,93.785301 C55.466999,93.843796 55.7015,93.580795 55.613602,93.317802 C55.2617,92.002701 54.323601,91.8274 53.883801,90.249298 C53.356098,88.379105 53.062901,86.947205 55.760201,84.580101 C57.812401,82.797501 62.7672,82.943604 64.936798,84.580101 C67.135696,86.245804 67.340897,87.765396 66.813202,89.6064 C66.402702,91.067596 65.552498,91.7397 65.171303,92.9963 C65.0541,93.405396 65.435204,93.814499 65.845703,93.668396 C66.4907,93.405396 66.813202,92.820999 67.634102,92.353401 C69.393204,91.301399 72.266403,92.148804 73.351196,94.106796 C74.435898,96.064697 74.641197,98.227203 74.054802,100.389702 C73.761597,101.558601 73.351097,102.698303 72.647499,103.662598 C71.797302,104.802299 69.920898,105.532898 68.542999,105.357605 C65.787003,105.006897 64.584999,103.6334 63.3536,102.2892 C62.005001,100.828003 61.594501,100.126701 60.832199,100.009796 H59.8647 V100.039001 " id="path1" fill="#0C0A35"></path><path d="M104.634,147.239 C104.341,147.181 104.194,146.918 103.666,146.334 C103.197,145.807 102.728,145.281 101.644,145.135 C101.086,145.077 100.354,145.369 100.031,145.807 C99.7378,146.187 99.5912,146.626 99.474,147.093 C99.2394,147.941 99.3274,148.788 99.7671,149.548 C100.178,150.308 101.292,150.658 101.995,150.249 C102.376,150.016 102.494,149.753 102.816,149.694 C102.934,149.694 103.021,149.782 102.992,149.869 C102.846,150.395 102.494,150.454 102.318,151.068 C102.113,151.798 101.995,152.353 103.051,153.289 C103.842,153.99 105.807,153.931 106.628,153.289 C107.478,152.646 107.566,152.061 107.361,151.331 C107.214,150.746 106.862,150.483 106.716,150.016 C106.657,149.84 106.833,149.694 106.979,149.753 C107.214,149.84 107.361,150.074 107.683,150.279 C108.387,150.688 109.501,150.366 109.911,149.577 C110.322,148.817 110.41,147.97 110.175,147.123 C110.058,146.684 109.911,146.217 109.618,145.837 C109.296,145.398 108.563,145.106 108.006,145.165 C106.921,145.311 106.452,145.837 105.983,146.363 C105.455,146.947 105.279,147.21 104.986,147.269 H104.605 L104.634,147.239 " id="path2" fill="#0C0A35"></path><path d="M16.0633,35.4911 C16.3565,35.5496 16.5324,35.8126 17.0601,36.3678 C17.5292,36.8938 17.9983,37.4198 19.0831,37.566 C19.6401,37.6244 20.3731,37.3322 20.6956,36.8938 C20.9888,36.5139 21.1354,36.0756 21.2527,35.608 C21.4872,34.7606 21.3993,33.9131 20.9888,33.1533 C20.5783,32.3935 19.4349,32.0428 18.7606,32.452 C18.3795,32.6857 18.2622,32.9488 17.9397,33.0072 C17.8224,33.0072 17.7345,32.9195 17.7638,32.8318 C17.9104,32.3058 18.2622,32.2474 18.4381,31.6337 C18.6433,30.9032 18.7606,30.3479 17.7051,29.4128 C16.9135,28.7114 14.9492,28.7699 14.1283,29.4128 C13.2781,30.0557 13.1901,30.6401 13.3953,31.3707 C13.5419,31.9552 13.8937,32.2182 14.0403,32.6857 C14.099,32.8611 13.9231,33.0072 13.7765,32.9487 C13.5419,32.8611 13.3953,32.6273 13.0728,32.4227 C12.3692,32.0136 11.2551,32.3351 10.8446,33.1241 C10.4342,33.8839 10.3462,34.7313 10.5808,35.5788 C10.698,36.0171 10.8446,36.4847 11.1378,36.8646 C11.4603,37.303 12.1933,37.5952 12.7503,37.5367 C13.8351,37.4198 14.3042,36.8646 14.7733,36.3386 C15.301,35.7834 15.4769,35.4911 15.7701,35.4619 H16.1513 L16.0633,35.4911 " id="path3" fill="#0C0A35"></path></svg>